<svg width="325" height="80" viewBox="0 0 325 80" fill="none" xmlns="http://www.w3.org/2000/svg">
<rect x="1.50391" y="0.103981" width="321.695" height="79.2235" fill="#0039A6"/>
<path d="M94.8448 30.8629V48.104H90.8794V34.1141H83.0962V48.104H79.1308V30.8629H94.8448ZM107.345 48.3996C105.555 48.3996 103.938 48.0137 102.493 47.2419C101.065 46.4702 99.9397 45.4111 99.1187 44.0647C98.3141 42.7018 97.9118 41.1747 97.9118 39.4834C97.9118 37.7922 98.3141 36.2733 99.1187 34.9269C99.9397 33.564 101.065 32.4967 102.493 31.7249C103.938 30.9532 105.555 30.5673 107.345 30.5673C109.135 30.5673 110.744 30.9532 112.173 31.7249C113.601 32.4967 114.726 33.564 115.547 34.9269C116.368 36.2733 116.779 37.7922 116.779 39.4834C116.779 41.1747 116.368 42.7018 115.547 44.0647C114.726 45.4111 113.601 46.4702 112.173 47.2419C110.744 48.0137 109.135 48.3996 107.345 48.3996ZM107.345 45.0006C108.363 45.0006 109.283 44.7707 110.104 44.311C110.925 43.8348 111.565 43.178 112.025 42.3405C112.501 41.5031 112.739 40.5507 112.739 39.4834C112.739 38.4161 112.501 37.4638 112.025 36.6263C111.565 35.7889 110.925 35.1403 110.104 34.6806C109.283 34.2044 108.363 33.9663 107.345 33.9663C106.327 33.9663 105.408 34.2044 104.587 34.6806C103.766 35.1403 103.117 35.7889 102.641 36.6263C102.181 37.4638 101.951 38.4161 101.951 39.4834C101.951 40.5507 102.181 41.5031 102.641 42.3405C103.117 43.178 103.766 43.8348 104.587 44.311C105.408 44.7707 106.327 45.0006 107.345 45.0006ZM137.154 44.8528V51.6754H133.46V48.104H121.292V51.6754H117.598L117.623 44.8528H118.312C119.347 44.82 120.077 44.0647 120.504 42.5868C120.931 41.109 121.194 38.999 121.292 36.2569L121.489 30.8629H134.74V44.8528H137.154ZM124.815 36.6263C124.732 38.6789 124.56 40.403 124.297 41.7987C124.035 43.178 123.632 44.196 123.09 44.8528H130.8V34.1141H124.888L124.815 36.6263ZM147.303 30.8629C148.83 30.8629 150.152 31.1174 151.269 31.6264C152.402 32.1354 153.272 32.8579 153.879 33.7939C154.487 34.7298 154.791 35.8382 154.791 37.1189C154.791 38.3833 154.487 39.4917 153.879 40.444C153.272 41.38 152.402 42.1025 151.269 42.6115C150.152 43.1041 148.83 43.3504 147.303 43.3504H143.83V48.104H139.84V30.8629H147.303ZM147.082 40.0992C148.28 40.0992 149.192 39.8447 149.816 39.3357C150.439 38.8102 150.751 38.0713 150.751 37.1189C150.751 36.1502 150.439 35.4113 149.816 34.9022C149.192 34.3768 148.28 34.1141 147.082 34.1141H143.83V40.0992H147.082ZM165.89 48.3996C164.1 48.3996 162.483 48.0137 161.038 47.2419C159.609 46.4702 158.484 45.4111 157.663 44.0647C156.859 42.7018 156.457 41.1747 156.457 39.4834C156.457 37.7922 156.859 36.2733 157.663 34.9269C158.484 33.564 159.609 32.4967 161.038 31.7249C162.483 30.9532 164.1 30.5673 165.89 30.5673C167.68 30.5673 169.289 30.9532 170.717 31.7249C172.146 32.4967 173.271 33.564 174.092 34.9269C174.913 36.2733 175.323 37.7922 175.323 39.4834C175.323 41.1747 174.913 42.7018 174.092 44.0647C173.271 45.4111 172.146 46.4702 170.717 47.2419C169.289 48.0137 167.68 48.3996 165.89 48.3996ZM165.89 45.0006C166.908 45.0006 167.828 44.7707 168.649 44.311C169.47 43.8348 170.11 43.178 170.57 42.3405C171.046 41.5031 171.284 40.5507 171.284 39.4834C171.284 38.4161 171.046 37.4638 170.57 36.6263C170.11 35.7889 169.47 35.1403 168.649 34.6806C167.828 34.2044 166.908 33.9663 165.89 33.9663C164.872 33.9663 163.952 34.2044 163.131 34.6806C162.31 35.1403 161.662 35.7889 161.186 36.6263C160.726 37.4638 160.496 38.4161 160.496 39.4834C160.496 40.5507 160.726 41.5031 161.186 42.3405C161.662 43.178 162.31 43.8348 163.131 44.311C163.952 44.7707 164.872 45.0006 165.89 45.0006ZM178.397 30.8629H192.313V34.0402H182.363V37.5869H187.141C189.226 37.5869 190.811 38.0221 191.894 38.8923C192.995 39.7626 193.545 41.0187 193.545 42.6607C193.545 44.3848 192.937 45.7231 191.722 46.6755C190.507 47.6278 188.791 48.104 186.574 48.104H178.397V30.8629ZM186.353 45.1484C187.371 45.1484 188.151 44.9513 188.693 44.5573C189.234 44.1468 189.505 43.5556 189.505 42.7839C189.505 41.2732 188.454 40.5179 186.353 40.5179H182.363V45.1484H186.353ZM212.394 30.8629V48.104H208.404V41.0351H200.571V48.104H196.581V30.8629H200.571V37.6608H208.404V30.8629H212.394ZM230.063 44.9021V48.104H216.713V30.8629H229.743V34.0648H220.679V37.8086H228.684V40.912H220.679V44.9021H230.063ZM246.635 44.9021V48.104H233.286V30.8629H246.315V34.0648H237.251V37.8086H245.256V40.912H237.251V44.9021H246.635Z" fill="white"/>
</svg>
